<mxfile host="app.diagrams.net" modified="2023-08-13T14:37:41.782Z" agent="Mozilla/5.0 (Windows NT 10.0; Win64; x64) AppleWebKit/537.36 (KHTML, like Gecko) Chrome/115.0.0.0 Safari/537.36" etag="Umzt12iE4Tklpv9tbEWw" version="21.6.8" type="google">
  <diagram name="Page-1" id="SzVJzq9xkPy_61J-BHw6">
    <mxGraphModel dx="142" dy="481" grid="1" gridSize="10" guides="1" tooltips="1" connect="1" arrows="1" fold="1" page="1" pageScale="1" pageWidth="850" pageHeight="1100" math="0" shadow="0">
      <root>
        <mxCell id="0" />
        <mxCell id="1" parent="0" />
        <mxCell id="dPEFftnB_7vbTUjoGr8l-1" value="Картинка" style="swimlane;html=1;fontStyle=0;childLayout=stackLayout;horizontal=1;startSize=26;fillColor=#e0e0e0;horizontalStack=0;resizeParent=1;resizeLast=0;collapsible=1;marginBottom=0;swimlaneFillColor=#ffffff;align=center;rounded=1;shadow=0;comic=0;labelBackgroundColor=none;strokeWidth=1;fontFamily=Verdana;fontSize=12" vertex="1" parent="1">
          <mxGeometry x="1120" y="160" width="160" height="120" as="geometry">
            <mxRectangle x="40" y="40" width="151" height="26" as="alternateBounds" />
          </mxGeometry>
        </mxCell>
        <mxCell id="dPEFftnB_7vbTUjoGr8l-2" value="id" style="text;html=1;fillColor=none;align=center;verticalAlign=middle;whiteSpace=wrap;rounded=0;dashed=1;perimeterSpacing=0;strokeColor=#000000;strokeWidth=1;" vertex="1" parent="dPEFftnB_7vbTUjoGr8l-1">
          <mxGeometry y="26" width="160" height="20" as="geometry" />
        </mxCell>
        <mxCell id="dPEFftnB_7vbTUjoGr8l-3" value="название" style="text;html=1;fillColor=none;align=center;verticalAlign=middle;whiteSpace=wrap;rounded=0;perimeterSpacing=0;strokeWidth=1;" vertex="1" parent="dPEFftnB_7vbTUjoGr8l-1">
          <mxGeometry y="46" width="160" height="20" as="geometry" />
        </mxCell>
        <mxCell id="xkotbUsOSfqJqQ_PcNyq-4" value="категория" style="text;html=1;fillColor=none;align=center;verticalAlign=middle;whiteSpace=wrap;rounded=0;perimeterSpacing=0;strokeWidth=1;" vertex="1" parent="dPEFftnB_7vbTUjoGr8l-1">
          <mxGeometry y="66" width="160" height="20" as="geometry" />
        </mxCell>
        <mxCell id="xkotbUsOSfqJqQ_PcNyq-5" value="имя файла в хранилище" style="text;html=1;fillColor=none;align=center;verticalAlign=middle;whiteSpace=wrap;rounded=0;perimeterSpacing=0;strokeWidth=1;" vertex="1" parent="dPEFftnB_7vbTUjoGr8l-1">
          <mxGeometry y="86" width="160" height="20" as="geometry" />
        </mxCell>
        <mxCell id="xkotbUsOSfqJqQ_PcNyq-1" value="Категория" style="swimlane;html=1;fontStyle=0;childLayout=stackLayout;horizontal=1;startSize=26;fillColor=#e0e0e0;horizontalStack=0;resizeParent=1;resizeLast=0;collapsible=1;marginBottom=0;swimlaneFillColor=#ffffff;align=center;rounded=1;shadow=0;comic=0;labelBackgroundColor=none;strokeWidth=1;fontFamily=Verdana;fontSize=12" vertex="1" parent="1">
          <mxGeometry x="1400" y="160" width="160" height="120" as="geometry">
            <mxRectangle x="40" y="40" width="151" height="26" as="alternateBounds" />
          </mxGeometry>
        </mxCell>
        <mxCell id="xkotbUsOSfqJqQ_PcNyq-2" value="id" style="text;html=1;fillColor=none;align=center;verticalAlign=middle;whiteSpace=wrap;rounded=0;dashed=1;perimeterSpacing=0;strokeColor=#000000;strokeWidth=1;" vertex="1" parent="xkotbUsOSfqJqQ_PcNyq-1">
          <mxGeometry y="26" width="160" height="20" as="geometry" />
        </mxCell>
        <mxCell id="xkotbUsOSfqJqQ_PcNyq-3" value="название" style="text;html=1;fillColor=none;align=center;verticalAlign=middle;whiteSpace=wrap;rounded=0;perimeterSpacing=0;strokeWidth=1;" vertex="1" parent="xkotbUsOSfqJqQ_PcNyq-1">
          <mxGeometry y="46" width="160" height="20" as="geometry" />
        </mxCell>
        <mxCell id="xkotbUsOSfqJqQ_PcNyq-6" style="edgeStyle=orthogonalEdgeStyle;rounded=0;orthogonalLoop=1;jettySize=auto;html=1;entryX=0;entryY=0.5;entryDx=0;entryDy=0;" edge="1" parent="1" source="xkotbUsOSfqJqQ_PcNyq-4" target="xkotbUsOSfqJqQ_PcNyq-2">
          <mxGeometry relative="1" as="geometry" />
        </mxCell>
      </root>
    </mxGraphModel>
  </diagram>
</mxfile>
